<?xml version="1.0" encoding="utf-8"?>
<!-- Generator: Adobe Illustrator 17.1.0, SVG Export Plug-In . SVG Version: 6.00 Build 0)  -->
<!DOCTYPE svg PUBLIC "-//W3C//DTD SVG 1.1//EN" "http://www.w3.org/Graphics/SVG/1.1/DTD/svg11.dtd">
<svg version="1.1" id="Layer_1" xmlns="http://www.w3.org/2000/svg" xmlns:xlink="http://www.w3.org/1999/xlink" x="0px" y="0px"
	 viewBox="444 0 512 500" enable-background="new 444 0 512 500" xml:space="preserve">
<g>
	<path fill="#FCF3F0" d="M910.4,240.5c0,6.2,0,12.5,0,18.7c-0.8,0.1-0.8,0.7-0.8,1.4c0.1,3.6-0.5,7.2-0.7,10.9
		c-0.5,6.8-1.7,13.5-3,20.1c-2,9.9-4.7,19.7-8.2,29.2c-5.6,15.5-13,30.2-21.9,44c-6.7,10.3-14.3,19.8-22.7,28.8
		c-6.1,6.6-12.6,12.7-19.6,18.3c-8.9,7.2-18.2,13.8-28.1,19.6c-12.1,7.1-24.7,12.8-37.9,17.3c-9.7,3.3-19.6,5.9-29.7,7.7
		c-9,1.6-18,2.9-27.1,3.1c-0.6,0-1.4-0.2-1.6,0.8c-6.2,0-12.5,0-18.7,0c-0.3-1.2-1.2-0.8-1.9-0.8c-4.2,0.1-8.5-0.4-12.6-0.9
		c-7.5-0.9-15-2.2-22.4-3.8c-14.4-3.2-28.3-7.9-41.7-14.1c-11.6-5.4-22.7-11.7-33.2-19.2c-7.3-5.2-14.3-10.7-20.8-16.8
		c-5.2-5-10.4-10-15.2-15.5c-5.7-6.4-11-13-15.8-20.1c-7-10.1-13.1-20.7-18.2-31.9c-5.2-11.4-9.4-23.2-12.6-35.3
		c-2-7.5-3.4-15.2-4.5-22.9c-1-7.3-1.9-14.5-1.9-21.9c0-7.4-0.3-14.7,0.3-22.1c0.4-5.7,0.9-11.5,1.8-17.1c1.3-8.5,3.1-16.9,5.4-25.1
		c3.1-10.9,7-21.5,11.8-31.8c5.6-11.8,12.1-23.1,19.7-33.8c5.7-8,12-15.5,18.7-22.6c6.1-6.4,12.6-12.3,19.4-17.9
		c10.4-8.6,21.5-16.1,33.4-22.4c17.3-9.3,35.5-16.1,54.8-20.3c11-2.4,22.2-4.1,33.5-4.5c11.6-0.4,23.3-0.4,34.9,1
		c9,1.1,17.9,2.6,26.7,4.7c10.6,2.6,21,6.1,31.1,10.3c11.5,4.8,22.5,10.7,33,17.5c9,5.9,17.6,12.4,25.6,19.7
		c7.6,6.9,14.8,14.1,21.4,21.9c6,7.2,11.6,14.8,16.6,22.7c6.3,10.1,11.8,20.6,16.4,31.5c4.8,11.5,8.6,23.4,11.2,35.5
		c2.4,11.2,4.2,22.6,4.5,34.1C909.6,239.4,909.3,240.3,910.4,240.5z M602.8,320.5c-0.3,2,0.3,3.9,0.3,5.8c-0.1,6.1,1.3,11.9,3,17.7
		c0.3,1.2,0.7,1.5,1.9,0.7c2.6-1.8,5.4-3.4,7.9-5.3c1.8-1.4,2.8-0.5,3.9,0.9c2.9,3.7,5.9,7.4,8.8,11.2c0.8,1,1.4,1.1,2.5,0.4
		c2.6-1.8,5.2-3.4,7.8-5.1c0.6-0.4,1.2-1,1.9-0.3c2.3,2.2,4.6,4.4,5.3,7.7c0.3,1.5,0.7,2.9,1.1,4.4c1,4,3.8,4.6,7.1,2.4
		c1.9-1.3,3.6-2.9,5.3-4.5c1.6-1.5,2.1-1.4,3.2,0.4c2.1,3.6,4.5,7,5.5,11.2c0.4,1.7,1.5,3,3.5,3c2.3,0,4.6,0.2,5.6-2.6
		c0.5-1.2,1-2.4,2-3.4c0.8-0.8,1.5-0.9,2.4-0.3c2.1,1.3,3.9,3,4.9,5.3c1.4,3.1,2.7,6.3,4,9.5c0.4,0.9,0.9,1.3,1.9,1.5
		c2.4,0.6,4.3-0.2,5.9-2c1-1.1,1.7-2.4,2.6-3.5c3.3-3.7,4.6-3.5,7.7,0.5c2.1,2.7,3.6,5.7,5.1,8.7c1.8,3.6,4.2,4.2,7.3,1.7
		c4.4-3.7,8.9-7.3,13.1-11.2c1.4-1.3,2.3-1.2,3.7-0.1c2.3,2,4.7,3.9,7.1,5.7c3.1,2.2,6.1,1.5,7.9-1.9c0.6-1.2,1.2-2.4,1.8-3.6
		c1.7-3.3,1.4-3.7,4.7-1c4.8,3.9,7.5,3.7,11.8-0.8c1-1,1.9-2.1,2.7-3.1c1-1.2,1.8-1.4,3.1-0.4c1.4,1.2,3,2.1,4.6,3.1
		c2.4,1.5,4.7,3.2,7.9,2.8c1.6-0.2,2.6-1,2.6-2.7c0-1.1,0-2.1-0.4-3.1c-2-4.4-2.8-9.1-2.7-13.9c0.2-7.2-0.1-14.4,0.3-21.7
		c0.5-8-0.1-16,0.5-24.1c0.3-4,0-7.9,0.3-11.9c0.4-5.5,0.3-11,0.4-16.5c0.4-16.6-0.3-33.2,0.4-49.8c0.4-9.3,0.5-18.7,0.8-28
		c0.3-7.9,0.6-15.7,0.8-23.6c0.1-6.2,0.6-12.4,0.5-18.7c0-3.2,0.8-6.1,3.2-8.5c3.3-3.3,2.4-6.3-2.2-7.5c-0.3-0.1-0.7-0.1-1-0.2
		c-3.3-0.6-6.6-1.1-9.8-2.4c-6.3-2.7-12.6-5.3-18.8-7.9c-9.4-4-18.9-8-28.3-12.1c-9.1-4-18-8.4-27.6-11.2c-4.7-1.4-8.9-3.8-12.3-7.4
		c-0.7-0.8-1.5-1.2-2.6-1.1c-5,0.3-9.9,0.8-14.6,2.5c-8,2.9-16.1,5.8-24.1,8.7c-16.6,6-33.3,12-49.9,18c-4,1.4-5.2,4-3.6,7.9
		c1.2,3,1.9,6.2,1.8,9.5c-0.1,4.1-0.3,8.2-0.3,12.3c-0.1,6.8,0,13.6,0.2,20.5c0.4,12.1,0.1,24.3,0.5,36.4c0.3,8.8-0.6,17.6-1.1,26.4
		c-0.5,7.7-0.8,15.3-0.8,23C601.9,286.4,601.6,303.5,602.8,320.5z"/>
	<path fill="#FCF3F0" d="M725.9,227.9c0,11.8,0.1,23.6,0,35.5c-0.1,6.3-0.4,12.6-0.8,18.8c-0.5,7.6-1.3,15.1-2,22.7
		c-0.7,7.3-1.2,14.6-0.7,21.8c0.5,7.5,0.3,15,0.2,22.5c-0.1,8-0.7,16-1.1,24c-0.1,1.5-1.1,2.4-2,3.3c-0.8,0.8-1.4-0.1-1.9-0.7
		c-1.7-2.5-3.4-5-5-7.7c-3.7-6.5-7.9-5.7-12.7-1.8c-1.5,1.2-2.9,2.5-4.3,3.9c-0.8,0.8-1.3,0.7-1.8-0.3c-1.7-3.6-3.6-7.1-5.1-10.8
		c-2.5-6.1-4.7-7-10.4-3.9c-1.7,0.9-3.4,2.1-4.9,3.4c-1.3,1-1.8,0.7-2.3-0.6c-0.9-2.8-1.8-5.7-2.6-8.5c-1.1-3.7-2.6-4.4-6.3-3.3
		c-2.3,0.7-3.9,2.5-6,3.4c-0.2,0.1-0.4,0.4-0.7,0.4c-4,1.5-3.9,1.6-5.5-1.8c-1.6-3.3-3.5-6.4-5-9.7c-0.9-1.9-2.2-2.1-3.9-1.7
		c-1.9,0.4-3.6,1.4-5,2.8c-0.4,0.4-0.7,0.8-1.1,1.1c-1.7,1.3-3.4,3.5-5.4,2.9c-2.6-0.7-4.7-2.9-5.9-5.6c-0.9-2.1-0.9-4.2-0.9-6.4
		c0-2.2-0.2-2.3-2.3-1.5c-2.8,1.1-5.5,2.3-8.2,3.5c-1.2,0.5-1.7,0.4-1.9-1.1c-0.5-4.5-0.8-9.1-1.2-13.6c-1.6-16.9-1.2-33.8-1.1-50.7
		c0.1-8.7,0.4-17.3,0.8-26c0.3-6.7,0.5-13.4,0.8-20c0.3-7.1,0.8-14.2,1.4-21.3c0.4-5,0.5-10,0.3-15c-0.3-6.1-0.4-12.2-0.6-18.3
		c-0.2-6.1-0.7-12.3-0.7-18.4c0-2.1,0.4-2.5,2.5-2c6.2,1.6,12.4,3.2,18.6,5c9.2,2.7,18.4,5.7,27.4,8.9c15.6,5.4,31.1,11.1,46.2,17.6
		c6.3,2.7,12.6,5.5,18.7,8.9c1.6,0.9,2.3,2,2.3,3.9C725.9,203.5,725.9,215.7,725.9,227.9z M623.6,263.6c-0.9-0.1-1.7,0.3-2.5,1
		c-2.3,2-2.2,4.7-1.9,7.4c0.5,5,1.3,10.1,1.5,15.1c0.2,4.4,1.4,5.8,5.6,5.6c2.9-0.1,5.9-0.7,8.8,0.2c7,2.2,14.1,4.2,21,6.5
		c10,3.3,19.8,7.1,29.2,12c3.1,1.6,6.2,1.9,9.6,0.8c1.5-0.5,2-1.1,1.9-2.7c-0.2-5.4,0.2-10.7,1-16c0.6-4.1-0.5-6.3-4.3-7.7
		c-0.5-0.2-1-0.3-1.5-0.4c-8-2.3-16-4.5-24-6.8c-9.4-2.7-18.8-5.5-28.2-8.2c-4.5-1.3-9-2.5-12.7-5.8
		C626.2,264,625,263.6,623.6,263.6z M618,220.7c-0.5,3.5,0.5,7.1,1.3,10.7c0.7,2.9,1.2,6.1,2.9,8.6c4.1,6.2,14.6,6.2,18.5-0.2
		c4.1-6.5,6.2-13.7,5.9-21.5c-0.1-3.3-1.4-6-4.3-7.8c-2.1-1.4-4.4-2.1-6.9-2.3c-1.4-0.1-2.1-0.8-2-2.2c0.1-1.6-0.9-2.2-2.2-2.6
		c-5.1-1.4-9.9,1.2-11.8,6.4C618.3,213.3,617.7,216.8,618,220.7z M680.4,247.9c-0.3,1.9,0.4,4.8,2,7.6c2.5,4.3,6,6.5,11,5.7
		c4.1-0.7,6.3-3.5,7.5-7.3c0.4-1.1,0.7-2.3,1.1-3.4c2.7-6.4,2.6-12.8-0.1-19.2c-1.2-2.9-1.9-6-2-9.2c0-1.6-1-2.6-2.3-3.2
		c-6.2-3.1-12.7,0.3-14.4,6.4C681.5,232.2,680.6,239.3,680.4,247.9z"/>
	<path fill="#FCF3F0" d="M729.5,350.1c-0.1-11.9-0.8-23.7-0.4-35.6c0.3-8.3,0.7-16.6,1.5-24.9c0.4-4.6,0.5-9.2,0.9-13.8
		c1.3-18.1,0.8-36.2,0.7-54.3c-0.1-8.9-0.2-17.9-0.3-26.8c0-2.9,0.4-5.7,0.5-8.5c0.1-2.4,1.8-4,3.8-5c10.9-5.6,21.9-11.2,32.9-16.6
		c4.3-2.2,8.8-3.9,13.6-4.9c1-0.2,1.6,0,2.2,0.8c1.1,1.6,1.7,3.2,1.7,5.2c0,7-0.2,14.1-0.5,21.1c-0.6,13.3-1,26.6-0.6,39.9
		c0.4,12.4,0.3,24.8,0.2,37.2c-0.1,8-0.1,16-0.4,24.1c-0.3,7.5-0.5,14.9-0.8,22.4c-0.3,7-0.5,14-0.8,21c-0.3,6.9-0.6,13.9-0.8,20.8
		c-0.1,2-0.2,4-0.4,5.9c-0.2,1.9-0.9,2.2-2.5,1c-5.1-3.7-6.9-3.4-10.5,2c-1.2,1.8-2.2,3.6-3.5,5.3c-0.4,0.6-0.6,1.7-1.5,1.6
		c-0.8-0.1-0.9-1-1.2-1.7c-1-2-2-3.9-3.7-5.4c-2.2-1.9-5.9-2.7-8,1.2c-1.5,2.8-3.3,5.4-5,8.1c-0.7,1.2-1.4,1.2-2.3,0.2
		c-1.3-1.5-2.6-2.8-3.8-4.3c-2.4-2.8-5.5-3.4-8.8-2.6c-1.8,0.4-2.2-0.1-2.2-1.8C729.6,357.8,729.5,353.9,729.5,350.1z"/>
	<path fill="#FCF3F0" d="M725.3,176.7c-3.6-0.2-6.7-1.4-9.8-2.6c-11.3-4.4-22.8-8.7-34.4-12.5c-15.5-5-31.2-9.4-46.8-13.7
		c-7.3-2-14.6-4.2-21.9-6.2c-0.7-0.2-1.8-0.3-1.9-1.2c-0.1-0.9,0.9-1.2,1.6-1.5c2.7-1.5,5.7-2.3,8.5-3.3
		c13.6-4.8,27.3-9.5,40.9-14.4c5.2-1.9,10.4-3.4,15.5-5.5c8.3-3.4,16.5-2.5,24.5,0.8c10.3,4.3,20.5,9,30.7,13.5
		c12.4,5.5,24.9,10.9,37.2,16.5c2.8,1.2,5.4,2.9,8,4.4c1.1,0.6,1,1.1-0.2,1.7c-9,4.3-17.9,8.8-26.8,13.1c-6.7,3.3-13.5,6.5-20.3,9.7
		C728.6,176.4,726.8,176.3,725.3,176.7z"/>
	<path fill="#FCF3F0" d="M689.6,298.9c0,4.4,0,4.4-4.3,2.9c-14-5.1-28.4-8.9-42.5-13.5c-3.5-1.1-6.9-2.2-10.4-3.3
		c-3.5-1.1-4.2-2.4-3.4-5.9c0.7-3.3,0.7-3.4,3.9-2.4c12.1,3.6,24.2,7.2,36.3,10.9c5.3,1.6,10.6,3.3,15.9,5
		C688.8,293.8,689.6,295,689.6,298.9z"/>
	<path fill="#FCF3F0" d="M626.7,222.6c-0.2-5.3,1.9-9.3,5.3-12.7c1.2-1.2,1.8-0.9,2.4,0.5c1.7,3.8,2.8,7.9,3,12
		c0.1,2.5-0.6,5.1-1.1,7.6c-0.3,1.3-3.8,3.9-5,3.5c-1.6-0.5-2.7-1.8-3.3-3.5C627.1,227.5,626.5,225,626.7,222.6z"/>
	<path fill="#FCF3F0" d="M695.2,235.4c0.2,4.1-1,7.3-2.5,10.5c-0.5,1.1-1.1,1.3-1.8,0.1c-1.6-2.5-2.8-5.2-2.9-8.3
		c-0.1-3.2,1.7-5.3,4.3-6.8c1.3-0.7,2.2-0.6,2.6,1.1C695.2,233.4,695.1,234.7,695.2,235.4z"/>
</g>
</svg>
