<?xml version="1.0" encoding="utf-8"?>
<!-- Generator: Adobe Illustrator 17.1.0, SVG Export Plug-In . SVG Version: 6.00 Build 0)  -->
<svg version="1.2" baseProfile="tiny" id="Layer_1" xmlns="http://www.w3.org/2000/svg" xmlns:xlink="http://www.w3.org/1999/xlink"
	 x="0px" y="0px" viewBox="0 0 808 500" xml:space="preserve">
<g>
	<g>
		<g>
			<path fill="#DE4F27" d="M164.547,299.703c0.87,8.414,3.045,15.225,6.525,20.446c7.246,10.732,19.718,14.07,37.412,10.005
				c14.498-3.48,25.808-12.9,33.931-28.276c2.896-5.505,5.505-11.236,7.83-17.183c2.318-5.941,4.785-12.833,7.395-20.663
				c2.611-7.83,8.264-18.782,10.297-24.294c1.156-2.896,12.481-1.862,15.384-3.167c2.896-1.306-6.758-0.23-3.713,0.925
				c3.045,1.162,5.22,3.194,6.525,6.09c1.305,2.902,1.373,5.947,0.217,9.135l-6.09,18.271c-2.902,8.123-5.654,15.66-8.265,22.62
				c-2.611,6.96-5.513,13.485-8.7,19.576c-11.31,21.466-27.841,34.652-49.591,39.586c-28.132,6.669-48.721,0.142-61.772-19.576
				c-10.441-15.368-13.778-35.671-10.005-60.902c3.188-23.491,10.876-43.209,23.055-59.162c6.669-8.7,14.356-15.151,23.055-19.358
				c8.7-4.2,17.978-4.71,27.841-1.523c16.531,5.805,25.231,17.693,26.101,35.671c0.87,13.92-3.338,27.991-12.616,42.197
				c-9.571,14.79-21.466,24.51-35.671,29.146C183.831,302.463,174.117,302.605,164.547,299.703z M161.151,287.882
				c6.96,4.065,33.032-13.123,38.732-18.823c9.05-9.05,19.183-31.128,18.606-39.828c-0.292-7.538-3.772-12.324-10.441-14.356
				c-7.829-2.896-15.953,1.305-24.36,12.616C174.117,239.963,164.046,269.033,161.151,287.882z"/>
			<path fill="#DE4F27" d="M282.427,299.703c0.87,8.414,3.045,15.225,6.525,20.446c7.246,10.732,19.718,14.07,37.412,10.005
				c14.498-3.48,25.808-12.9,33.931-28.276c2.896-5.505,5.505-11.236,7.83-17.183c2.318-5.941,4.785-12.833,7.395-20.663
				c2.611-7.83,4.928-14.499,6.96-20.011c1.156-2.896,3.188-5.003,6.091-6.308c2.896-1.306,5.872-1.374,8.917-0.218
				c3.045,1.162,5.22,3.194,6.525,6.09c1.305,2.902,1.373,5.947,0.217,9.135l-6.09,18.271c-2.902,8.123-5.654,15.66-8.265,22.62
				c-2.611,6.96-5.513,13.485-8.7,19.576c-11.31,21.466-27.841,34.652-49.591,39.586c-28.132,6.669-48.721,0.142-61.772-19.576
				c-10.441-15.368-13.778-35.671-10.005-60.902c3.188-23.491,10.876-43.209,23.055-59.162c6.669-8.7,14.355-15.151,23.055-19.358
				c8.7-4.2,17.978-4.71,27.841-1.523c16.531,5.805,25.231,17.693,26.101,35.671c0.87,13.92-3.338,27.991-12.616,42.197
				c-9.571,14.79-21.466,24.51-35.671,29.146C301.711,302.463,291.997,302.605,282.427,299.703z M282.862,274.472
				c6.96,4.065,14.063,4.935,21.316,2.611c8.985-3.188,16.816-9.856,23.49-20.011c6.375-9.856,9.278-19.141,8.7-27.841
				c-0.292-7.538-3.772-12.324-10.441-14.356c-7.829-2.896-15.953,1.305-24.36,12.616
				C291.997,239.963,285.759,255.623,282.862,274.472z"/>
			<path fill="#DE4F27" d="M569.751,235.103c-1.889-2.753-4.423-4.418-7.612-5.003c-3.196-0.577,5.29-10.617,2.536-8.734
				c-2.76,1.889-14.805,18.169-15.385,21.357c-7.545,41.184-20.798,65.244-37.613,78.294c-2.611,2.032-4.785,3.045-6.524,3.045
				c-1.162,0-2.325-0.577-3.481-1.74c-4.642-4.058-9.135-12.181-13.485-24.36l-3.48-11.746
				c19.141-39.151,35.236-92.223,48.287-159.215c0.098-0.567,0.52-3.588,0.732-4.91c0.365-2.289,0.79-5.965,1.224-11.186
				c0.437-5.22,0.654-9.135,0.654-11.745c0.577-11.018-0.15-19.861-2.176-26.536c-2.61-7.83-6.457-14.063-11.528-18.706
				c-5.077-4.635-11.093-7.103-18.053-7.395c-12.473-0.869-23.783,4.935-33.931,17.401c-15.375,18.855-24.075,49.157-26.1,90.918
				c-0.585,16.244-0.15,32.625,1.305,49.156c-4.642-2.026-9.285-3.045-13.92-3.045c-15.66,0.292-29.296,9.571-40.891,27.841
				c-9.571,15.66-15.375,33.21-17.401,52.637c-2.032,22.043,1.591,39.444,10.876,52.202c6.375,8.415,14.138,13.485,23.273,15.225
				c9.135,1.74,17.325,0.721,24.578-3.045c13.629-5.505,25.081-14.64,34.366-27.406l3.045-4.785
				c4.928,11.895,10.583,20.738,16.965,26.535c5.798,4.928,12.181,7.395,19.141,7.395c6.96,0,14.063-2.76,21.316-8.266
				c21.458-16.53,36.54-48.286,45.243-95.267C572.286,240.832,571.635,237.862,569.751,235.103z M446.86,304.487
				c-6.674,9.285-14.648,15.81-23.925,19.576c-8.7,3.481-15.375,2.032-20.011-4.35c-6.091-8.116-8.266-20.011-6.525-35.671
				c1.447-15.66,6.09-29.866,13.92-42.631c6.96-11.311,13.92-16.965,20.881-16.965c6.09,0,12.466,4.5,19.141,13.485
				c0,1.162,0.142,2.325,0.435,3.48c0.286,0.585,2.025,8.7,5.22,24.36c1.156,6.383,2.461,12.33,3.915,17.836
				C455.56,291.437,451.209,298.397,446.86,304.487z M466.927,159.16c0,0,2.03-73.134,28.764-83.392
				c22.251-8.538,9.384,66.848,10.347,62.216c0,0-7.633,59.129-32.726,113.698C473.311,251.682,463.88,201.745,466.927,159.16z"/>
			<path fill="#DE4F27" d="M564.745,299.703c0.871,8.414,3.045,15.225,6.525,20.446c7.246,10.732,19.718,14.07,37.412,10.005
				c14.498-3.48,27.008-11.456,33.292-15.094c5.383-3.117,61.137-66.587,63.17-72.099c0.164-0.413,24.151-32.355,30.097-42.003
				c6.811-11.053,16.952-10.749,18.851-9.591c13.561,8.268,3.779,17.962,2.977,20.175c0,0-77.06,102.195-84.667,109.141
				c-17.918,16.36-36.747,27.158-58.498,32.091c-28.134,6.669-48.722,0.142-61.773-19.576
				c-10.44-15.368-13.777-35.671-10.005-60.902c3.187-23.491,10.876-43.209,23.055-59.162c6.668-8.7,14.356-15.151,23.055-19.358
				c8.701-4.2,17.978-4.71,27.841-1.523c16.531,5.805,25.231,17.693,26.101,35.671c0.871,13.92-3.337,27.991-12.615,42.197
				c-9.569,14.79-21.466,24.51-35.67,29.146C584.028,302.463,574.315,302.605,564.745,299.703z M565.18,274.472
				c6.961,4.065,14.064,4.935,21.316,2.611c8.987-3.188,16.817-9.856,23.491-20.011c6.375-9.856,9.278-19.141,8.7-27.841
				c-0.292-7.538-3.771-12.324-10.44-14.356c-7.83-2.896-15.953,1.305-24.36,12.616C574.315,239.963,568.075,255.623,565.18,274.472
				z"/>
		</g>
		<g>
			<path fill="#DE4F27" d="M662.382,200.544c1.376-4.265,2.886-6.02,7.409-7.176c3.305-0.665,7.623-1.146,10.534,0.467
				c2.905,1.619,5.348,3.895,6.13,6.627c18.15,63.373,24.737,87.365,31.066,102.035c5.08,11.777,11.411,19.777,12.733,20.509
				c4.931,2.732,7.88,5.887,18.573,3.673c6.109-1.264,14.412-8.976,16.495-11.476c3.724-4.469,10.258-15.597,16.027-17.023
				c3.217-0.794,11.473,2.396,12.692,5.152c1.219,2.762-0.505,10.272-2.228,13.005c-21.205,33.631-43.022,34.612-53.381,33.075
				c-4.842-0.656-17.017-4.528-23.834-9.881c-5.693-4.47-9.43-9.677-11.384-11.615c-2.379-2.36-8.411-17.348-8.411-17.348
				C692.159,302.882,661.442,201.588,662.382,200.544z"/>
		</g>
		<g>
			<path fill="#DE4F27" d="M48.573,303.628c-1.885-1.569-10.181-2.805-12.036-6.607c-2.251-4.611-1.674-10.679,0.724-13.122
				c2.409-2.456,9.311-4.883,14.208-2.896l0.996,0.181c5.02-27.634,9.443-49.15,14.472-71.139
				c8.164-34.863,16.172-63.131,24.028-84.803c4.711-13.191,9.577-23.394,14.605-30.623c6.279-10.365,13.191-16.798,20.729-19.316
				c6.279-2.51,12.249-2.356,17.902,0.471c4.712,2.518,8.319,6.596,10.836,12.249c3.135,6.596,4.866,16.018,5.182,28.267
				c0.309,17.594-1.259,33.612-4.711,48.055c-12.566,56.225-33.449,99.033-60.142,123.531c1.983,0.153,19.988,4.722,35.74,4.347
				c18.628-0.443,36.017-2.579,37.646-3.258c15.316-6.382,54.052-10.823,35.475,0.362c-2.863,1.724,2.325,4.341-3.258,7.24
				c-4.707,2.444-15.718,6.258-19.909,7.963c-9.827,4-29.202,6.335-34.751,7.24c-9.712,1.584-42.882-0.755-47.809-0.906
				c1.885,6.286,3.607,13.979,5.183,23.085c3.135,20.413,2.826,44.287-0.942,71.612c-2.201,16.326-5.654,29.517-10.365,39.574
				c-7.538,14.758-17.593,22.921-30.152,24.497c-7.538,0.943-13.979-0.94-19.316-5.653c-4.086-3.77-7.067-8.795-8.951-15.074
				c-2.827-8.798-3.77-20.576-2.827-35.335c0.309-5.655,0.942-11.624,1.885-17.904c0.942-6.596,1.722-12.094,2.356-16.491
				l2.827-13.661c0.625-4.402,0.942-6.758,0.942-7.066L48.573,303.628z M58.861,447.007c4.87-0.511,9.402-4.3,13.592-11.374
				c5.039-8.094,8.625-19.432,10.758-34.004c3.926-26.179,3.321-48.562-1.804-67.154c-2.616-10.445-5.588-18.738-8.921-24.879
				l-9.457,51.255c-0.411,1.005-1.193,3.828-2.356,8.491l-2.175,13.423c-1.163,4.655-2.192,10.13-3.066,16.424
				c-0.884,6.289-1.453,12.078-1.696,17.362c-0.436,12.534,0.57,21.727,3.015,27.568L58.861,447.007z M124.483,111.3
				c-4.208,6.46-8.415,15.492-12.616,27.111c-7.763,19.69-15.693,47.609-23.774,83.751c-4.208,18.079-7.763,34.856-10.675,50.348
				c22.319-21.618,40.583-56.645,52.227-107.643c2.911-12.587,5.479-29.09,6.247-45.217
				C136.725,102.177,129.81,102.455,124.483,111.3z"/>
		</g>
		<path fill="#DE4F27" d="M449.418,204.252c0,0,25.875,17.517,27.636,38.277c0,0,1.103,8.399,0.696,34.361
			c-0.406,25.962-23.66-44.049-23.66-44.049L449.418,204.252z"/>
	</g>
	<g>
		<g>
			<path fill="#FFFFFF" d="M150.786,285.941c0.87,8.414,3.045,15.225,6.525,20.446c7.246,10.732,19.718,14.07,37.412,10.005
				c14.498-3.48,25.808-12.9,33.931-28.276c2.896-5.505,5.505-11.236,7.83-17.183c2.318-5.941,4.785-12.833,7.395-20.663
				c2.611-7.83,8.264-18.782,10.297-24.294c1.156-2.896,12.481-1.862,15.385-3.167c2.896-1.306-6.758-0.23-3.713,0.925
				c3.045,1.162,5.22,3.194,6.525,6.09c1.305,2.902,1.373,5.947,0.217,9.135l-6.09,18.271c-2.902,8.123-5.654,15.66-8.265,22.62
				c-2.611,6.96-5.513,13.485-8.7,19.576c-11.31,21.466-27.841,34.652-49.591,39.586c-28.132,6.669-48.721,0.142-61.772-19.576
				c-10.441-15.368-13.778-35.671-10.005-60.902c3.188-23.491,10.876-43.209,23.055-59.162c6.669-8.7,14.356-15.151,23.055-19.358
				c8.7-4.2,17.978-4.71,27.841-1.523c16.531,5.805,25.231,17.693,26.101,35.671c0.87,13.92-3.338,27.991-12.616,42.197
				c-9.571,14.79-21.466,24.51-35.671,29.146C170.069,288.701,160.356,288.844,150.786,285.941z M147.389,274.12
				c6.96,4.065,33.032-13.123,38.732-18.823c9.05-9.05,19.183-31.128,18.606-39.828c-0.292-7.538-3.772-12.324-10.441-14.356
				c-7.829-2.896-15.953,1.305-24.36,12.616C160.356,226.202,150.285,255.272,147.389,274.12z"/>
			<path fill="#FFFFFF" d="M268.666,285.941c0.87,8.414,3.045,15.225,6.525,20.446c7.246,10.732,19.718,14.07,37.412,10.005
				c14.498-3.48,25.808-12.9,33.931-28.276c2.896-5.505,5.505-11.236,7.83-17.183c2.318-5.941,4.785-12.833,7.395-20.663
				c2.611-7.83,4.928-14.499,6.96-20.011c1.156-2.896,3.188-5.003,6.091-6.308c2.896-1.306,5.872-1.374,8.917-0.218
				c3.045,1.162,5.22,3.194,6.525,6.09c1.305,2.902,1.373,5.947,0.217,9.135l-6.09,18.271c-2.902,8.123-5.654,15.66-8.265,22.62
				c-2.611,6.96-5.513,13.485-8.7,19.576c-11.31,21.466-27.841,34.652-49.591,39.586c-28.132,6.669-48.721,0.142-61.772-19.576
				c-10.441-15.368-13.778-35.671-10.005-60.902c3.188-23.491,10.876-43.209,23.055-59.162c6.669-8.7,14.355-15.151,23.055-19.358
				c8.7-4.2,17.978-4.71,27.841-1.523c16.531,5.805,25.231,17.693,26.101,35.671c0.87,13.92-3.338,27.991-12.616,42.197
				c-9.571,14.79-21.466,24.51-35.671,29.146C287.949,288.701,278.236,288.844,268.666,285.941z M269.101,260.71
				c6.96,4.065,14.063,4.935,21.316,2.611c8.985-3.188,16.816-9.856,23.49-20.011c6.375-9.856,9.278-19.141,8.7-27.841
				c-0.292-7.538-3.772-12.324-10.441-14.356c-7.829-2.896-15.953,1.305-24.36,12.616
				C278.236,226.202,271.997,241.862,269.101,260.71z"/>
			<path fill="#FFFFFF" d="M555.989,221.342c-1.889-2.753-4.423-4.418-7.612-5.003c-3.196-0.577,5.29-10.617,2.536-8.734
				c-2.76,1.889-14.805,18.169-15.384,21.357c-7.545,41.184-20.798,65.244-37.614,78.294c-2.611,2.032-4.785,3.045-6.524,3.045
				c-1.162,0-2.325-0.577-3.481-1.74c-4.642-4.058-9.135-12.181-13.485-24.36l-3.48-11.746
				c19.141-39.151,35.236-92.223,48.287-159.215c0.098-0.567,0.52-3.588,0.732-4.91c0.365-2.289,0.79-5.965,1.224-11.186
				c0.437-5.22,0.654-9.135,0.654-11.745c0.577-11.018-0.15-19.861-2.176-26.536c-2.61-7.83-6.457-14.063-11.528-18.706
				c-5.077-4.635-11.093-7.103-18.053-7.395c-12.473-0.869-23.783,4.935-33.931,17.401c-15.375,18.855-24.075,49.157-26.1,90.918
				c-0.585,16.244-0.15,32.625,1.305,49.156c-4.642-2.026-9.285-3.045-13.92-3.045c-15.66,0.292-29.296,9.571-40.891,27.841
				c-9.571,15.66-15.375,33.21-17.401,52.637c-2.032,22.043,1.591,39.444,10.876,52.202c6.375,8.415,14.138,13.485,23.273,15.225
				c9.135,1.74,17.326,0.721,24.578-3.045c13.629-5.505,25.081-14.64,34.366-27.406l3.045-4.785
				c4.928,11.895,10.583,20.738,16.965,26.535c5.798,4.928,12.181,7.395,19.141,7.395c6.96,0,14.063-2.76,21.316-8.266
				c21.458-16.53,36.54-48.286,45.242-95.267C558.524,227.071,557.873,224.101,555.989,221.342z M433.098,290.726
				c-6.674,9.285-14.648,15.81-23.925,19.576c-8.7,3.481-15.375,2.032-20.011-4.35c-6.091-8.116-8.266-20.011-6.525-35.671
				c1.447-15.66,6.09-29.866,13.92-42.631c6.96-11.311,13.92-16.965,20.881-16.965c6.09,0,12.466,4.5,19.141,13.485
				c0,1.162,0.142,2.325,0.435,3.48c0.286,0.585,2.025,8.7,5.22,24.36c1.156,6.383,2.461,12.33,3.915,17.836
				C441.798,277.675,437.448,284.636,433.098,290.726z M453.165,145.399c0,0,2.03-73.134,28.764-83.392
				c22.251-8.538,9.384,66.848,10.347,62.216c0,0-7.633,59.129-32.726,113.698C459.55,237.921,450.119,187.984,453.165,145.399z"/>
			<path fill="#FFFFFF" d="M550.983,285.941c0.871,8.414,3.045,15.225,6.525,20.446c7.246,10.732,19.718,14.07,37.412,10.005
				c14.498-3.48,27.008-11.456,33.292-15.094c5.383-3.117,61.137-66.587,63.17-72.099c0.164-0.413,24.151-32.355,30.097-42.003
				c6.811-11.053,16.952-10.749,18.851-9.591c13.561,8.268,3.779,17.962,2.977,20.175c0,0-77.06,102.195-84.667,109.141
				c-17.918,16.36-36.747,27.158-58.498,32.091c-28.134,6.669-48.722,0.142-61.773-19.576
				c-10.44-15.368-13.777-35.671-10.005-60.902c3.187-23.491,10.876-43.209,23.055-59.162c6.668-8.7,14.356-15.151,23.055-19.358
				c8.701-4.2,17.978-4.71,27.841-1.523c16.531,5.805,25.231,17.693,26.101,35.671c0.871,13.92-3.337,27.991-12.615,42.197
				c-9.569,14.79-21.466,24.51-35.67,29.146C570.266,288.701,560.553,288.844,550.983,285.941z M551.418,260.71
				c6.961,4.065,14.064,4.935,21.316,2.611c8.987-3.188,16.817-9.856,23.491-20.011c6.375-9.856,9.278-19.141,8.7-27.841
				c-0.292-7.538-3.771-12.324-10.44-14.356c-7.83-2.896-15.953,1.305-24.36,12.616C560.553,226.202,554.314,241.862,551.418,260.71
				z"/>
		</g>
		<g>
			<path fill="#FFFFFF" d="M648.62,186.783c1.376-4.265,2.886-6.02,7.409-7.176c3.305-0.665,7.623-1.146,10.534,0.467
				c2.905,1.619,5.348,3.895,6.13,6.627c18.15,63.373,24.737,87.365,31.066,102.035c5.08,11.777,11.411,19.777,12.733,20.509
				c4.931,2.732,7.88,5.887,18.573,3.673c6.109-1.264,14.412-8.976,16.495-11.476c3.724-4.469,10.258-15.597,16.027-17.023
				c3.217-0.794,11.473,2.396,12.692,5.152c1.219,2.762-0.505,10.272-2.228,13.005c-21.205,33.631-43.022,34.612-53.381,33.075
				c-4.842-0.656-17.017-4.528-23.834-9.881c-5.693-4.47-9.43-9.677-11.384-11.615c-2.379-2.36-8.411-17.348-8.411-17.348
				C678.398,289.121,647.68,187.826,648.62,186.783z"/>
		</g>
		<g>
			<path fill="#FFFFFF" d="M34.812,289.867c-1.885-1.569-10.181-2.805-12.036-6.607c-2.251-4.611-1.674-10.679,0.724-13.122
				c2.409-2.456,9.311-4.883,14.208-2.896l0.996,0.181c5.02-27.634,9.443-49.15,14.472-71.139
				c8.164-34.863,16.172-63.131,24.028-84.803c4.711-13.191,9.577-23.394,14.605-30.623c6.279-10.365,13.191-16.798,20.729-19.316
				c6.279-2.51,12.249-2.356,17.902,0.471c4.712,2.518,8.319,6.596,10.836,12.249c3.135,6.596,4.866,16.018,5.182,28.267
				c0.309,17.594-1.259,33.612-4.711,48.055c-12.566,56.225-33.449,99.033-60.142,123.531c1.983,0.153,19.988,4.722,35.74,4.347
				c18.628-0.443,36.017-2.579,37.646-3.258c15.316-6.382,54.051-10.823,35.475,0.362c-2.863,1.724,2.325,4.341-3.258,7.24
				c-4.707,2.444-15.718,6.258-19.909,7.963c-9.827,4-29.202,6.335-34.751,7.24c-9.712,1.584-42.882-0.755-47.808-0.906
				c1.885,6.286,3.607,13.979,5.183,23.085c3.135,20.413,2.826,44.287-0.942,71.612c-2.201,16.326-5.654,29.517-10.365,39.574
				c-7.538,14.758-17.593,22.921-30.152,24.497c-7.538,0.943-13.979-0.94-19.316-5.653c-4.086-3.77-7.067-8.795-8.951-15.074
				c-2.827-8.798-3.77-20.576-2.827-35.335c0.309-5.655,0.942-11.624,1.885-17.904c0.942-6.596,1.722-12.094,2.356-16.491
				l2.827-13.661c0.625-4.402,0.942-6.758,0.942-7.066L34.812,289.867z M45.099,433.245c4.87-0.511,9.402-4.3,13.592-11.374
				c5.039-8.094,8.625-19.432,10.758-34.004c3.926-26.179,3.321-48.562-1.804-67.154c-2.616-10.445-5.588-18.738-8.921-24.879
				l-9.457,51.255c-0.411,1.005-1.193,3.828-2.356,8.491l-2.175,13.423c-1.163,4.655-2.192,10.13-3.066,16.424
				c-0.884,6.289-1.453,12.078-1.696,17.362c-0.436,12.534,0.57,21.727,3.015,27.568L45.099,433.245z M110.722,97.538
				c-4.208,6.46-8.415,15.492-12.616,27.111c-7.763,19.69-15.693,47.609-23.774,83.751c-4.208,18.079-7.763,34.856-10.675,50.348
				c22.319-21.618,40.583-56.644,52.227-107.643c2.911-12.587,5.479-29.09,6.247-45.217
				C122.964,88.416,116.049,88.693,110.722,97.538z"/>
		</g>
		<path fill="#FFFFFF" d="M435.657,190.491c0,0,25.875,17.517,27.636,38.277c0,0,1.103,8.399,0.696,34.361
			s-23.66-44.049-23.66-44.049L435.657,190.491z"/>
	</g>
</g>
</svg>
